<svg width="124" height="124" viewBox="0 0 124 124" fill="none" xmlns="http://www.w3.org/2000/svg">
<path d="M88.7428 16.1539C99.5809 26.9306 105 42.2633 105 62.1744C105 82.0855 99.7041 97.2269 89.0899 107.936C78.4869 118.645 63.3381 124 43.6324 124H0V0H42.5912C62.5208 0 77.9047 5.38837 88.7428 16.1539Z" fill="#1137F5"/>
<mask id="mask0_2946_32076" style="mask-type:luminance" maskUnits="userSpaceOnUse" x="0" y="0" width="105" height="124">
<path d="M88.7428 16.1539C99.5809 26.9306 105 42.2633 105 62.1744C105 82.0855 99.7041 97.2269 89.0899 107.936C78.4869 118.645 63.3381 124 43.6324 124H0V0H42.5912C62.5208 0 77.9047 5.38837 88.7428 16.1539Z" fill="white"/>
</mask>
<g mask="url(#mask0_2946_32076)">
<path d="M144.378 65.5716L60.6283 61.5669L143.616 49.5865L143.303 47.3592L60.3148 59.3396L139.541 31.7903L138.813 29.6642L59.5871 57.2135L132.185 15.0964L131.065 13.1503L58.4562 55.2673L121.828 0.101242L120.361 -1.59739L57.0007 53.5575L108.818 -12.6441L107.06 -14.039L55.2317 52.1851L93.6466 -22.6896L91.6648 -23.7246L53.2499 51.1389L76.8632 -29.6754L74.7134 -30.3166L51.089 50.5202L59.0609 -33.3426L56.8328 -33.5564L48.8609 50.2952L40.9003 -33.5564L38.6722 -33.3426L46.6328 50.5089L23.0196 -30.3166L20.8699 -29.6754L44.4831 51.1501L6.06821 -23.7246L4.07524 -22.6896L42.5014 52.1738L-9.32687 -14.039L-11.0847 -12.6441L40.7323 53.5687L-22.6282 -1.59739L-24.0949 0.101242L39.2656 55.2673L-33.332 13.1503L-34.4516 15.0964L38.1459 57.2135L-41.0799 29.6642L-41.8077 31.7903L37.4182 59.3396L-45.5697 47.3592L-45.8832 49.5865L37.1047 61.5669L-46.6445 65.5829L-46.5326 67.8215L37.2054 63.8167L-44.2709 83.6716L-43.7447 85.8652L37.7429 65.9991L-38.5271 100.995L-37.5978 103.043L38.661 68.0464L-29.626 116.913L-28.3272 118.747L39.9598 69.8801L-17.8921 130.851L-16.2687 132.403L41.5832 71.4325L-3.73986 142.302L-1.85886 143.517L43.4642 72.6474L12.3046 150.852L14.3871 151.684L45.5468 73.4911L29.6814 156.195L31.8759 156.623L47.7413 73.9073V158.153H49.9806V73.9073L65.8571 156.623L68.0516 156.195L52.1862 73.4911L83.3459 151.684L85.4284 150.852L54.2688 72.6586L99.5919 143.517L101.473 142.302L56.1386 71.4212L114.002 132.403L115.625 130.851L57.7733 69.8913L126.06 118.747L127.359 116.913L59.0609 68.0464L135.331 103.043L136.26 100.995L60.0014 65.9991L141.478 85.8652L142.004 83.6716L60.5276 63.8167L144.266 67.8215L144.378 65.5716Z" fill="white"/>
</g>
</svg>
